<svg width="56" height="56" viewBox="0 0 56 56" fill="none" xmlns="http://www.w3.org/2000/svg">
<path d="M26.5018 13C26.2211 13 26.034 13.1431 25.8937 13.322L12.1403 37.687C12.0468 37.8659 12 38.1521 12 38.3668V41.2648C12 41.4437 12.1871 41.5868 12.421 41.5868H44.2782C44.5121 41.5868 44.6992 41.4437 44.6992 41.2648V38.3668C44.6992 38.1879 44.6524 37.8659 44.5589 37.687L30.8056 13.322C30.712 13.1431 30.4781 13 30.1974 13H26.4082H26.5018ZM26.0808 23.7335H30.7588V30.8891H26.0808V23.7335ZM26.0808 34.4669H30.7588V38.0448H26.0808V34.4669Z" fill="#FF5C00"/>
</svg>
