<svg width="21" height="20" viewBox="0 0 21 20" fill="none" xmlns="http://www.w3.org/2000/svg">
<path fill-rule="evenodd" clip-rule="evenodd" d="M2.77161 1.3063C2.77161 1.016 2.65751 0.737595 2.45442 0.532323C2.25133 0.327051 1.97588 0.211731 1.68866 0.211731C1.40145 0.211731 1.12599 0.327051 0.922901 0.532323C0.719809 0.737595 0.605713 1.016 0.605713 1.3063V19.1172C0.605713 19.7214 1.09087 20.2117 1.68866 20.2117H19.3104C19.5976 20.2117 19.8731 20.0964 20.0761 19.8911C20.2792 19.6859 20.3933 19.4075 20.3933 19.1172C20.3933 18.8269 20.2792 18.5485 20.0761 18.3432C19.8731 18.1379 19.5976 18.0226 19.3104 18.0226H2.77016V1.3063H2.77161ZM15.2573 3.5436C15.0997 3.43004 14.9212 3.34965 14.7323 3.3072C14.5434 3.26475 14.3479 3.26112 14.1576 3.29652C13.9673 3.33191 13.7859 3.40562 13.6244 3.51325C13.4628 3.62088 13.3242 3.76024 13.217 3.92306L8.77258 10.6598L6.62979 8.49398C6.35885 8.21994 5.9913 8.06591 5.608 8.06577C5.2247 8.06564 4.85704 8.21941 4.58591 8.49325C4.31478 8.7671 4.16238 9.1386 4.16224 9.52601C4.16211 9.91343 4.31424 10.285 4.58518 10.5591L7.97409 13.9829C8.12512 14.1358 8.30786 14.253 8.50912 14.3258C8.71038 14.3987 8.92514 14.4255 9.1379 14.4043C9.35065 14.383 9.55608 14.3143 9.73937 14.2031C9.92265 14.0919 10.0792 13.9409 10.1977 13.7611L14.7909 6.79521L18.3227 9.34483C18.6345 9.56971 19.0218 9.66023 19.3996 9.59646C19.7773 9.53268 20.1145 9.31985 20.337 9.00478C20.5595 8.68971 20.6491 8.29821 20.586 7.91641C20.5229 7.5346 20.3123 7.19377 20.0006 6.96888L15.2573 3.5436Z" fill="#8B96A5"/>
</svg>
