<svg width="40" height="32" viewBox="0 0 40 32" fill="none" xmlns="http://www.w3.org/2000/svg">
<path fill-rule="evenodd" clip-rule="evenodd" d="M24.6802 10.99L22.9288 10.9909C21.5553 10.9909 21.289 11.5169 21.289 12.2884V13.9909H24.5651L24.1383 16.6581H21.289V23.5H17.8733V16.6581H15.0171V13.9909H17.8733V12.025C17.8733 9.74219 19.6027 8.5 22.1275 8.5C23.337 8.5 24.3767 8.57219 24.6802 8.605V10.99ZM19.8481 1C9.57203 1 1.24048 7.71531 1.24048 16C1.24048 24.2837 9.57203 31 19.8481 31C30.1253 31 38.4557 24.2837 38.4557 16C38.4557 7.71531 30.1253 1 19.8481 1Z" fill="#BDC4CD"/>
</svg>
