<svg width="40" height="32" viewBox="0 0 40 32" fill="none" xmlns="http://www.w3.org/2000/svg">
<path fill-rule="evenodd" clip-rule="evenodd" d="M20.1737 18.8948C22.1495 18.8948 23.7521 17.6067 23.7521 16.0167C23.7521 14.4276 22.1495 13.1395 20.1737 13.1395C18.1978 13.1395 16.5952 14.4276 16.5952 16.0167C16.5952 17.6067 18.1978 18.8948 20.1737 18.8948ZM24.2942 13.0694H26.8097C27.097 13.0694 27.3307 12.8819 27.3307 12.6512V10.6272C27.3307 10.3966 27.097 10.2091 26.8097 10.2091H24.2942C24.0069 10.2091 23.7732 10.3966 23.7732 10.6272V12.6512C23.7732 12.8819 24.0069 13.0694 24.2942 13.0694ZM29.4557 21.7206C29.4557 22.7031 28.466 23.5 27.2437 23.5H13.0601C11.839 23.5 10.8481 22.7031 10.8481 21.7206V10.2784C10.8481 9.29594 11.839 8.5 13.0601 8.5H27.2437C28.466 8.5 29.4557 9.29594 29.4557 10.2784V21.7206ZM20.1519 1C9.8747 1 1.54431 7.71531 1.54431 16C1.54431 24.2837 9.8747 31 20.1519 31C30.4291 31 38.7595 24.2837 38.7595 16C38.7595 7.71531 30.4291 1 20.1519 1ZM25.834 16.0171C25.834 18.5268 23.2952 20.5696 20.1738 20.5696C17.0523 20.5696 14.5136 18.5268 14.5136 16.0171C14.5136 15.6008 14.5834 15.1967 14.7148 14.8133H12.9738V21.3364C12.9738 21.568 13.2064 21.7555 13.4936 21.7555H26.8527C27.1412 21.7555 27.3737 21.568 27.3737 21.3364V14.8133H25.6328C25.7642 15.1967 25.834 15.6008 25.834 16.0171Z" fill="#BDC4CD"/>
</svg>
