<svg width="40" height="32" viewBox="0 0 40 32" fill="none" xmlns="http://www.w3.org/2000/svg">
<path fill-rule="evenodd" clip-rule="evenodd" d="M29.3544 23.4859H25.4991V18.6222C25.4991 17.4625 25.4735 15.9709 23.4953 15.9709C21.4892 15.9709 21.1833 17.2347 21.1833 18.5397V23.4859H17.3316V13.4847H21.0275V14.8525H21.081C21.595 14.0659 22.8534 13.2362 24.7292 13.2362C28.6333 13.2362 29.3544 15.3072 29.3544 18.0006V23.4859ZM12.9844 12.1187C11.7458 12.1187 10.7468 11.3106 10.7468 10.3159C10.7468 9.32125 11.7458 8.51312 12.9844 8.51312C14.2171 8.51312 15.2184 9.32125 15.2184 10.3159C15.2184 11.3106 14.2171 12.1187 12.9844 12.1187ZM14.9126 23.4859H11.0527V13.4847H14.9126V23.4859ZM20.0506 1C9.77338 1 1.44299 7.71531 1.44299 16C1.44299 24.2837 9.77338 31 20.0506 31C30.3278 31 38.6582 24.2837 38.6582 16C38.6582 7.71531 30.3278 1 20.0506 1Z" fill="#BDC4CD"/>
</svg>
