<svg width="21" height="20" viewBox="0 0 21 20" fill="none" xmlns="http://www.w3.org/2000/svg">
<path fill-rule="evenodd" clip-rule="evenodd" d="M10.7142 1.78571C7.1474 1.78571 4.2559 4.26414 4.2559 7.32143C4.2559 9.16511 5.3896 10.8198 6.81218 12.1604C8.22473 13.4916 9.81788 14.4131 10.4947 14.7747C10.5435 14.8007 10.6138 14.8214 10.7142 14.8214C10.8146 14.8214 10.8849 14.8007 10.9338 14.7747C11.6106 14.4131 13.2037 13.4916 14.6163 12.1604C16.0389 10.8198 17.1726 9.16511 17.1726 7.32143C17.1726 4.26414 14.2811 1.78571 10.7142 1.78571ZM2.17257 7.32143C2.17257 3.27791 5.9968 0 10.7142 0C15.4317 0 19.2559 3.27791 19.2559 7.32143C19.2559 9.80133 17.7414 11.8693 16.1574 13.362C14.5635 14.864 12.7919 15.8861 12.0357 16.2901C11.6208 16.5119 11.1602 16.6071 10.7142 16.6071C10.2682 16.6071 9.80765 16.5119 9.39277 16.2901C8.63652 15.8861 6.86493 14.864 5.271 13.362C3.6871 11.8693 2.17257 9.80133 2.17257 7.32143ZM3.36705 13.9342C3.53932 14.1117 3.71225 14.2815 3.88393 14.4433C5.6411 16.0991 7.57328 17.2119 8.40103 17.654C9.14533 18.0516 9.95717 18.2143 10.7142 18.2143C11.4713 18.2143 12.2831 18.0516 13.0274 17.654C13.8552 17.2119 15.7874 16.0991 17.5446 14.4433C17.7162 14.2815 17.8891 14.1117 18.0614 13.9342C18.7022 14.1715 19.2644 14.451 19.7037 14.7747C20.2689 15.1911 20.7142 15.7476 20.7142 16.4286C20.7142 17.1094 20.2689 17.6659 19.7037 18.0823C19.1361 18.5006 18.3632 18.845 17.4809 19.1201C15.709 19.6723 13.3166 20 10.7142 20C8.11188 20 5.71942 19.6723 3.94763 19.1201C3.06517 18.845 2.2924 18.5006 1.72467 18.0823C1.15963 17.6659 0.714233 17.1094 0.714233 16.4286C0.714233 15.7476 1.15963 15.1911 1.72467 14.7747C2.16405 14.451 2.72625 14.1715 3.36705 13.9342ZM10.7142 9.28571C12.3251 9.28571 13.6309 8.16643 13.6309 6.78571C13.6309 5.405 12.3251 4.28571 10.7142 4.28571C9.1034 4.28571 7.79757 5.405 7.79757 6.78571C7.79757 8.16643 9.1034 9.28571 10.7142 9.28571Z" fill="#8B96A5"/>
</svg>
