<svg width="187" height="32" viewBox="0 0 187 32" fill="none" xmlns="http://www.w3.org/2000/svg">
<path d="M17.4806 0.799998L12.3686 26H5.60059L0.488594 0.799998H5.67259L7.65259 12.464L8.87659 20.024H9.09259L10.3166 12.464L12.2966 0.799998H17.4806ZM26.0984 11.384H23.3984C23.0384 11.816 22.7384 12.416 22.4984 13.184C22.2824 13.952 22.1744 14.696 22.1744 15.416H27.3224C27.3704 14.696 27.2744 13.952 27.0344 13.184C26.7944 12.392 26.4824 11.792 26.0984 11.384ZM30.9944 22.22V26H21.8504C20.1704 24.872 18.9824 23.48 18.2864 21.824C17.6144 20.144 17.2784 18.452 17.2784 16.748C17.2784 12.812 18.7664 9.764 21.7424 7.604H27.5744C29.1824 8.78 30.2744 10.028 30.8504 11.348C31.4264 12.668 31.7144 14 31.7144 15.344C31.7144 16.688 31.6064 17.84 31.3904 18.8H22.4264C22.4984 19.352 22.7024 19.988 23.0384 20.708C23.3984 21.404 23.7824 21.908 24.1904 22.22H30.9944ZM42.122 7.604H45.938C46.994 8.948 47.714 10.292 48.098 11.636C48.482 12.98 48.674 14.66 48.674 16.676V26H43.886V16.316C43.886 14.036 43.574 12.392 42.95 11.384H38.918V26H34.13V7.604H37.874L38.522 8.9C39.05 8.42 39.542 8.084 39.998 7.892C40.478 7.7 41.186 7.604 42.122 7.604ZM65.5698 26H61.9338L61.2858 24.704C60.7578 25.184 60.2538 25.52 59.7738 25.712C59.3178 25.904 58.6218 26 57.6858 26H54.5538C53.4978 24.992 52.6578 23.672 52.0338 22.04C51.4338 20.408 51.1338 18.584 51.1338 16.568C51.1338 14.528 51.4338 12.8 52.0338 11.384C52.6578 9.968 53.5338 8.708 54.6618 7.604H57.7578C59.0298 7.604 60.0378 7.94 60.7818 8.612V0.799998H65.5698V26ZM60.7818 11.384H57.3258C56.4378 12.896 55.9938 14.756 55.9938 16.964C55.9938 19.148 56.4258 20.9 57.2898 22.22H60.7818V11.384ZM79.5975 26H71.7495C69.3495 23.768 68.1495 20.72 68.1495 16.856C68.1495 14.912 68.4135 13.22 68.9415 11.78C69.4935 10.34 70.3575 8.948 71.5335 7.604H79.9575C81.2055 9.044 82.0575 10.448 82.5135 11.816C82.9695 13.16 83.1975 14.84 83.1975 16.856C83.1975 20.72 81.9975 23.768 79.5975 26ZM74.3055 22.22H77.0415C77.9055 20.54 78.3375 18.632 78.3375 16.496C78.3375 14.36 77.8935 12.656 77.0055 11.384H74.3055C73.4415 12.608 73.0095 14.348 73.0095 16.604C73.0095 18.836 73.4415 20.708 74.3055 22.22ZM85.8106 26V7.604H89.2306L90.1306 9.548C91.0906 8.252 92.3026 7.604 93.7666 7.604H95.1706V12.428H90.5986V26H85.8106ZM99.7195 0.799998H108.36V5.12H101.448L101.34 5.336L107.1 15.848C108.276 17.96 108.864 19.568 108.864 20.672C108.864 23.096 108.06 24.872 106.452 26H96.9115V21.824H104.364L104.472 21.608L97.9915 9.98C97.0555 8.3 96.5875 6.932 96.5875 5.876C96.5875 3.38 97.6315 1.688 99.7195 0.799998ZM111.193 7.604H115.045L115.585 8.9C116.113 8.42 116.605 8.084 117.061 7.892C117.541 7.7 118.249 7.604 119.185 7.604H122.425C123.433 8.588 124.225 9.86 124.801 11.42C125.377 12.98 125.665 14.696 125.665 16.568C125.665 20.576 124.465 23.72 122.065 26H119.005C117.733 26 116.725 25.664 115.981 24.992V31.4H111.193V7.604ZM115.981 22.22H119.437C120.325 20.708 120.769 18.872 120.769 16.712C120.769 14.552 120.313 12.776 119.401 11.384H115.981V22.22ZM136.631 7.604H140.051C141.107 8.948 141.827 10.292 142.211 11.636C142.595 12.98 142.787 14.66 142.787 16.676V26H137.999V16.316C137.999 14.036 137.687 12.392 137.063 11.384H133.031V26H128.243V0.799998H133.031V8.9C133.559 8.42 134.051 8.084 134.507 7.892C134.987 7.7 135.695 7.604 136.631 7.604ZM154.067 11.384H151.367C151.007 11.816 150.707 12.416 150.467 13.184C150.251 13.952 150.143 14.696 150.143 15.416H155.291C155.339 14.696 155.243 13.952 155.003 13.184C154.763 12.392 154.451 11.792 154.067 11.384ZM158.963 22.22V26H149.819C148.139 24.872 146.951 23.48 146.255 21.824C145.583 20.144 145.247 18.452 145.247 16.748C145.247 12.812 146.735 9.764 149.711 7.604H155.543C157.151 8.78 158.243 10.028 158.819 11.348C159.395 12.668 159.683 14 159.683 15.344C159.683 16.688 159.575 17.84 159.359 18.8H150.395C150.467 19.352 150.671 19.988 151.007 20.708C151.367 21.404 151.751 21.908 152.159 22.22H158.963ZM162.135 26V7.604H165.555L166.455 9.548C167.415 8.252 168.627 7.604 170.091 7.604H171.495V12.428H166.923V26H162.135ZM181.208 11.384H178.508C178.148 11.816 177.848 12.416 177.608 13.184C177.392 13.952 177.284 14.696 177.284 15.416H182.432C182.48 14.696 182.384 13.952 182.144 13.184C181.904 12.392 181.592 11.792 181.208 11.384ZM186.104 22.22V26H176.96C175.28 24.872 174.092 23.48 173.396 21.824C172.724 20.144 172.388 18.452 172.388 16.748C172.388 12.812 173.876 9.764 176.852 7.604H182.684C184.292 8.78 185.384 10.028 185.96 11.348C186.536 12.668 186.824 14 186.824 15.344C186.824 16.688 186.716 17.84 186.5 18.8H177.536C177.608 19.352 177.812 19.988 178.148 20.708C178.508 21.404 178.892 21.908 179.3 22.22H186.104Z" fill="#6959CF"/>
</svg>
