<svg width="20" height="20" viewBox="0 0 20 20" fill="none" xmlns="http://www.w3.org/2000/svg">
<path fill-rule="evenodd" clip-rule="evenodd" d="M11.4287 1.42857C11.4287 0.639593 10.7891 0 10.0001 0C9.21113 0 8.57153 0.639593 8.57153 1.42857V2.14286H7.76496C5.44899 2.14286 3.57153 4.02031 3.57153 6.33629C3.57153 8.31364 4.95285 10.0223 6.88631 10.4366L8.57153 10.7977V15H7.85725C7.19355 15 6.63226 14.5461 6.4736 13.9296C6.27693 13.1656 5.4981 12.7056 4.73403 12.9022C3.96996 13.0989 3.50998 13.8777 3.70663 14.6419C4.18232 16.49 5.85832 17.8571 7.85725 17.8571H8.57153V18.5714C8.57153 19.3604 9.21113 20 10.0001 20C10.7891 20 11.4287 19.3604 11.4287 18.5714V17.8571H11.8403C14.3744 17.8571 16.4287 15.8029 16.4287 13.2687C16.4287 11.1051 14.9172 9.23553 12.8017 8.78219L11.4287 8.48797V5C12.4439 5 13.2973 5.70737 13.5167 6.65761C13.6941 7.42637 14.4612 7.90571 15.23 7.72824C15.9987 7.55079 16.4781 6.78371 16.3007 6.01496C15.7887 3.79724 13.8036 2.14286 11.4287 2.14286V1.42857ZM8.57153 5H7.76496C7.02695 5 6.42868 5.59827 6.42868 6.33629C6.42868 6.96639 6.86885 7.51087 7.48496 7.6429L8.57153 7.87573V5ZM11.4287 11.41V15H11.8403C12.7964 15 13.5715 14.2249 13.5715 13.2687C13.5715 12.4524 13.0013 11.747 12.203 11.5759L11.4287 11.41Z" fill="#8B96A5"/>
</svg>
