<svg width="1180" height="130" viewBox="0 0 1180 130" fill="none" xmlns="http://www.w3.org/2000/svg">
<path d="M0 18C0 13.5817 3.58172 10 8 10H1172C1176.42 10 1180 13.5817 1180 18V122C1180 126.418 1176.42 130 1172 130H8.00001C3.58173 130 0 126.418 0 122V18Z" fill="#005ADE"/>
<path d="M0 6C0 2.68629 2.68629 0 6 0H700.47L745 120H6.00002C2.68631 120 0 117.314 0 114V6Z" fill="#237CFF"/>
<rect x="1027" y="39" width="123" height="40" rx="6" fill="#FF9017"/>
<path d="M1045.76 52.8636L1049 62.3409H1049.13L1052.37 52.8636H1054.27L1050.08 64.5H1048.05L1043.87 52.8636H1045.76ZM1058.7 64.6761C1057.84 64.6761 1057.1 64.4924 1056.48 64.125C1055.86 63.7538 1055.38 63.233 1055.05 62.5625C1054.71 61.8883 1054.55 61.0985 1054.55 60.1932C1054.55 59.2992 1054.71 58.5114 1055.05 57.8295C1055.38 57.1477 1055.85 56.6155 1056.46 56.233C1057.06 55.8504 1057.77 55.6591 1058.58 55.6591C1059.07 55.6591 1059.55 55.7405 1060.01 55.9034C1060.47 56.0663 1060.89 56.322 1061.26 56.6705C1061.62 57.0189 1061.91 57.4716 1062.13 58.0284C1062.34 58.5814 1062.44 59.2538 1062.44 60.0455V60.6477H1055.51V59.375H1060.78C1060.78 58.928 1060.69 58.5322 1060.51 58.1875C1060.33 57.839 1060.07 57.5644 1059.74 57.3636C1059.41 57.1629 1059.03 57.0625 1058.59 57.0625C1058.12 57.0625 1057.7 57.1799 1057.34 57.4148C1056.99 57.6458 1056.72 57.9489 1056.52 58.3239C1056.33 58.6951 1056.24 59.0985 1056.24 59.5341V60.5284C1056.24 61.1117 1056.34 61.608 1056.55 62.017C1056.76 62.4261 1057.04 62.7386 1057.42 62.9545C1057.79 63.1667 1058.22 63.2727 1058.72 63.2727C1059.04 63.2727 1059.33 63.2273 1059.6 63.1364C1059.86 63.0417 1060.09 62.9015 1060.29 62.7159C1060.48 62.5303 1060.63 62.3011 1060.73 62.0284L1062.34 62.3182C1062.21 62.7917 1061.98 63.2064 1061.64 63.5625C1061.31 63.9148 1060.9 64.1894 1060.4 64.3864C1059.9 64.5795 1059.34 64.6761 1058.7 64.6761ZM1064.33 64.5V55.7727H1065.97V57.1591H1066.06C1066.22 56.6894 1066.5 56.3201 1066.9 56.0511C1067.31 55.7784 1067.77 55.642 1068.28 55.642C1068.38 55.642 1068.51 55.6458 1068.65 55.6534C1068.8 55.661 1068.92 55.6705 1069 55.6818V57.3068C1068.93 57.2879 1068.81 57.267 1068.64 57.2443C1068.46 57.2178 1068.29 57.2045 1068.11 57.2045C1067.71 57.2045 1067.35 57.2898 1067.04 57.4602C1066.73 57.6269 1066.48 57.8598 1066.3 58.1591C1066.12 58.4545 1066.03 58.7917 1066.03 59.1705V64.5H1064.33ZM1070.47 64.5V55.7727H1072.17V64.5H1070.47ZM1071.33 54.4261C1071.03 54.4261 1070.78 54.3277 1070.57 54.1307C1070.36 53.9299 1070.25 53.6913 1070.25 53.4148C1070.25 53.1345 1070.36 52.8958 1070.57 52.6989C1070.78 52.4981 1071.03 52.3977 1071.33 52.3977C1071.62 52.3977 1071.88 52.4981 1072.08 52.6989C1072.3 52.8958 1072.4 53.1345 1072.4 53.4148C1072.4 53.6913 1072.3 53.9299 1072.08 54.1307C1071.88 54.3277 1071.62 54.4261 1071.33 54.4261ZM1078.61 55.7727V57.1364H1073.68V55.7727H1078.61ZM1075.03 64.5V54.7614C1075.03 54.2159 1075.15 53.7633 1075.39 53.4034C1075.63 53.0398 1075.94 52.7689 1076.34 52.5909C1076.73 52.4091 1077.16 52.3182 1077.62 52.3182C1077.96 52.3182 1078.25 52.3466 1078.49 52.4034C1078.74 52.4564 1078.92 52.5057 1079.03 52.5511L1078.64 53.9261C1078.56 53.9034 1078.45 53.8769 1078.33 53.8466C1078.2 53.8125 1078.05 53.7955 1077.88 53.7955C1077.46 53.7955 1077.17 53.8977 1076.99 54.1023C1076.81 54.3068 1076.73 54.6023 1076.73 54.9886V64.5H1075.03ZM1081.43 67.7727C1081.18 67.7727 1080.95 67.7519 1080.74 67.7102C1080.53 67.6723 1080.38 67.6307 1080.28 67.5852L1080.68 66.1932C1081 66.2765 1081.27 66.3125 1081.51 66.3011C1081.76 66.2898 1081.97 66.1989 1082.16 66.0284C1082.35 65.858 1082.51 65.5795 1082.66 65.1932L1082.87 64.6136L1079.67 55.7727H1081.49L1083.7 62.5455H1083.79L1086 55.7727H1087.83L1084.23 65.6648C1084.06 66.1193 1083.85 66.5038 1083.59 66.8182C1083.34 67.1364 1083.03 67.375 1082.67 67.5341C1082.32 67.6932 1081.9 67.7727 1081.43 67.7727ZM1100.14 55.9205C1100.08 55.3826 1099.83 54.9659 1099.39 54.6705C1098.95 54.3712 1098.4 54.2216 1097.73 54.2216C1097.25 54.2216 1096.84 54.2973 1096.49 54.4489C1096.14 54.5966 1095.87 54.8011 1095.68 55.0625C1095.49 55.3201 1095.4 55.6136 1095.4 55.9432C1095.4 56.2197 1095.46 56.4583 1095.59 56.6591C1095.72 56.8598 1095.89 57.0284 1096.11 57.1648C1096.32 57.2973 1096.55 57.4091 1096.8 57.5C1097.05 57.5871 1097.28 57.6591 1097.51 57.7159L1098.65 58.0114C1099.02 58.1023 1099.4 58.2254 1099.79 58.3807C1100.18 58.536 1100.54 58.7405 1100.87 58.9943C1101.21 59.2481 1101.48 59.5625 1101.68 59.9375C1101.89 60.3125 1101.99 60.7614 1101.99 61.2841C1101.99 61.9432 1101.82 62.5284 1101.48 63.0398C1101.14 63.5511 1100.65 63.9545 1100.01 64.25C1099.37 64.5455 1098.6 64.6932 1097.69 64.6932C1096.81 64.6932 1096.06 64.5549 1095.42 64.2784C1094.79 64.0019 1094.29 63.6098 1093.93 63.1023C1093.57 62.5909 1093.37 61.9848 1093.33 61.2841H1095.1C1095.13 61.7045 1095.27 62.0549 1095.5 62.3352C1095.75 62.6117 1096.06 62.8182 1096.43 62.9545C1096.81 63.0871 1097.22 63.1534 1097.67 63.1534C1098.17 63.1534 1098.61 63.0758 1099 62.9205C1099.39 62.7614 1099.7 62.5417 1099.92 62.2614C1100.14 61.9773 1100.25 61.6458 1100.25 61.267C1100.25 60.9223 1100.16 60.6402 1099.96 60.4205C1099.77 60.2008 1099.5 60.0189 1099.17 59.875C1098.84 59.7311 1098.47 59.6042 1098.05 59.4943L1096.67 59.1193C1095.74 58.8655 1095 58.4924 1094.46 58C1093.92 57.5076 1093.65 56.8561 1093.65 56.0455C1093.65 55.375 1093.83 54.7898 1094.19 54.2898C1094.56 53.7898 1095.05 53.4015 1095.67 53.125C1096.29 52.8447 1096.99 52.7045 1097.77 52.7045C1098.56 52.7045 1099.25 52.8428 1099.86 53.1193C1100.46 53.3958 1100.94 53.7765 1101.29 54.2614C1101.64 54.7424 1101.82 55.2955 1101.83 55.9205H1100.14ZM1108.03 55.7727V57.1364H1103.26V55.7727H1108.03ZM1104.54 53.6818H1106.24V61.9375C1106.24 62.267 1106.29 62.5152 1106.39 62.6818C1106.48 62.8447 1106.61 62.9564 1106.77 63.017C1106.93 63.0739 1107.1 63.1023 1107.28 63.1023C1107.42 63.1023 1107.54 63.0928 1107.64 63.0739C1107.74 63.0549 1107.82 63.0398 1107.88 63.0284L1108.19 64.4318C1108.09 64.4697 1107.95 64.5076 1107.77 64.5455C1107.59 64.5871 1107.36 64.6098 1107.09 64.6136C1106.64 64.6212 1106.22 64.5417 1105.84 64.375C1105.45 64.2083 1105.14 63.9508 1104.9 63.6023C1104.66 63.2538 1104.54 62.8163 1104.54 62.2898V53.6818ZM1113.49 64.6761C1112.67 64.6761 1111.96 64.4886 1111.35 64.1136C1110.74 63.7386 1110.26 63.214 1109.93 62.5398C1109.59 61.8655 1109.42 61.0777 1109.42 60.1761C1109.42 59.2708 1109.59 58.4792 1109.93 57.8011C1110.26 57.1231 1110.74 56.5966 1111.35 56.2216C1111.96 55.8466 1112.67 55.6591 1113.49 55.6591C1114.31 55.6591 1115.02 55.8466 1115.63 56.2216C1116.24 56.5966 1116.72 57.1231 1117.05 57.8011C1117.39 58.4792 1117.56 59.2708 1117.56 60.1761C1117.56 61.0777 1117.39 61.8655 1117.05 62.5398C1116.72 63.214 1116.24 63.7386 1115.63 64.1136C1115.02 64.4886 1114.31 64.6761 1113.49 64.6761ZM1113.5 63.25C1114.03 63.25 1114.47 63.1098 1114.81 62.8295C1115.16 62.5492 1115.42 62.1761 1115.59 61.7102C1115.76 61.2443 1115.84 60.7311 1115.84 60.1705C1115.84 59.6136 1115.76 59.1023 1115.59 58.6364C1115.42 58.1667 1115.16 57.7898 1114.81 57.5057C1114.47 57.2216 1114.03 57.0795 1113.5 57.0795C1112.96 57.0795 1112.52 57.2216 1112.17 57.5057C1111.82 57.7898 1111.56 58.1667 1111.39 58.6364C1111.22 59.1023 1111.14 59.6136 1111.14 60.1705C1111.14 60.7311 1111.22 61.2443 1111.39 61.7102C1111.56 62.1761 1111.82 62.5492 1112.17 62.8295C1112.52 63.1098 1112.96 63.25 1113.5 63.25ZM1119.45 64.5V55.7727H1121.1V57.1591H1121.19C1121.35 56.6894 1121.63 56.3201 1122.03 56.0511C1122.43 55.7784 1122.89 55.642 1123.4 55.642C1123.51 55.642 1123.63 55.6458 1123.78 55.6534C1123.93 55.661 1124.04 55.6705 1124.12 55.6818V57.3068C1124.06 57.2879 1123.94 57.267 1123.76 57.2443C1123.59 57.2178 1123.41 57.2045 1123.24 57.2045C1122.84 57.2045 1122.48 57.2898 1122.16 57.4602C1121.85 57.6269 1121.61 57.8598 1121.43 58.1591C1121.24 58.4545 1121.15 58.7917 1121.15 59.1705V64.5H1119.45ZM1129.04 64.6761C1128.18 64.6761 1127.44 64.4924 1126.82 64.125C1126.21 63.7538 1125.73 63.233 1125.39 62.5625C1125.06 61.8883 1124.89 61.0985 1124.89 60.1932C1124.89 59.2992 1125.06 58.5114 1125.39 57.8295C1125.73 57.1477 1126.2 56.6155 1126.8 56.233C1127.41 55.8504 1128.11 55.6591 1128.92 55.6591C1129.42 55.6591 1129.89 55.7405 1130.36 55.9034C1130.82 56.0663 1131.23 56.322 1131.6 56.6705C1131.97 57.0189 1132.26 57.4716 1132.47 58.0284C1132.68 58.5814 1132.79 59.2538 1132.79 60.0455V60.6477H1125.85V59.375H1131.12C1131.12 58.928 1131.03 58.5322 1130.85 58.1875C1130.67 57.839 1130.41 57.5644 1130.08 57.3636C1129.76 57.1629 1129.38 57.0625 1128.94 57.0625C1128.46 57.0625 1128.04 57.1799 1127.69 57.4148C1127.33 57.6458 1127.06 57.9489 1126.87 58.3239C1126.68 58.6951 1126.58 59.0985 1126.58 59.5341V60.5284C1126.58 61.1117 1126.69 61.608 1126.89 62.017C1127.1 62.4261 1127.39 62.7386 1127.76 62.9545C1128.13 63.1667 1128.56 63.2727 1129.06 63.2727C1129.38 63.2727 1129.68 63.2273 1129.94 63.1364C1130.21 63.0417 1130.44 62.9015 1130.63 62.7159C1130.82 62.5303 1130.97 62.3011 1131.07 62.0284L1132.68 62.3182C1132.55 62.7917 1132.32 63.2064 1131.99 63.5625C1131.66 63.9148 1131.24 64.1894 1130.74 64.3864C1130.25 64.5795 1129.68 64.6761 1129.04 64.6761Z" fill="white"/>
<path d="M38.6506 35.5455V53H35.4886V38.6222H35.3864L31.304 41.2301V38.3324L35.642 35.5455H38.6506ZM49.3341 53.3324C47.9307 53.3324 46.7261 52.9773 45.7205 52.267C44.7205 51.5511 43.9506 50.5199 43.4108 49.1733C42.8767 47.821 42.6097 46.1932 42.6097 44.2898C42.6153 42.3864 42.8852 40.767 43.4193 39.4318C43.9591 38.0909 44.729 37.0682 45.729 36.3636C46.7347 35.6591 47.9364 35.3068 49.3341 35.3068C50.7318 35.3068 51.9335 35.6591 52.9392 36.3636C53.9449 37.0682 54.7148 38.0909 55.2489 39.4318C55.7886 40.7727 56.0585 42.392 56.0585 44.2898C56.0585 46.1989 55.7886 47.8295 55.2489 49.1818C54.7148 50.5284 53.9449 51.5568 52.9392 52.267C51.9392 52.9773 50.7375 53.3324 49.3341 53.3324ZM49.3341 50.6648C50.425 50.6648 51.2858 50.1278 51.9165 49.054C52.5528 47.9744 52.871 46.3864 52.871 44.2898C52.871 42.9034 52.7261 41.7386 52.4364 40.7955C52.1466 39.8523 51.7375 39.142 51.2091 38.6648C50.6807 38.1818 50.0557 37.9403 49.3341 37.9403C48.2489 37.9403 47.3909 38.4801 46.7602 39.5597C46.1295 40.6335 45.8114 42.2102 45.8057 44.2898C45.8 45.6818 45.9392 46.8523 46.2233 47.8011C46.5131 48.75 46.9222 49.4659 47.4506 49.9489C47.979 50.4261 48.6068 50.6648 49.3341 50.6648ZM68.0226 49.7273V48.8068C68.0226 48.1307 68.1646 47.5085 68.4487 46.9403C68.7385 46.3722 69.1589 45.9148 69.7101 45.5682C70.2612 45.2216 70.9288 45.0483 71.7129 45.0483C72.5197 45.0483 73.1959 45.2216 73.7413 45.5682C74.2868 45.9091 74.6987 46.3636 74.9771 46.9318C75.2612 47.5 75.4033 48.125 75.4033 48.8068V49.7273C75.4033 50.4034 75.2612 51.0256 74.9771 51.5938C74.693 52.1619 74.2754 52.6193 73.7243 52.9659C73.1788 53.3125 72.5084 53.4858 71.7129 53.4858C70.9175 53.4858 70.2442 53.3125 69.693 52.9659C69.1419 52.6193 68.7243 52.1619 68.4402 51.5938C68.1618 51.0256 68.0226 50.4034 68.0226 49.7273ZM70.247 48.8068V49.7273C70.247 50.1761 70.355 50.5881 70.5709 50.9631C70.7868 51.3381 71.1675 51.5256 71.7129 51.5256C72.2641 51.5256 72.6419 51.3409 72.8464 50.9716C73.0567 50.5966 73.1618 50.1818 73.1618 49.7273V48.8068C73.1618 48.3523 73.0624 47.9375 72.8635 47.5625C72.6646 47.1818 72.2811 46.9915 71.7129 46.9915C71.1788 46.9915 70.801 47.1818 70.5794 47.5625C70.3578 47.9375 70.247 48.3523 70.247 48.8068ZM59.1504 39.7386V38.8182C59.1504 38.1364 59.2953 37.5114 59.5851 36.9432C59.8749 36.375 60.2953 35.9205 60.8464 35.5795C61.3976 35.233 62.0652 35.0597 62.8493 35.0597C63.6504 35.0597 64.3237 35.233 64.8692 35.5795C65.4203 35.9205 65.8351 36.375 66.1135 36.9432C66.3919 37.5114 66.5311 38.1364 66.5311 38.8182V39.7386C66.5311 40.4205 66.3891 41.0455 66.105 41.6136C65.8266 42.1761 65.4118 42.6278 64.8607 42.9688C64.3095 43.3097 63.6391 43.4801 62.8493 43.4801C62.0482 43.4801 61.372 43.3097 60.8209 42.9688C60.2754 42.6278 59.8607 42.1733 59.5766 41.6051C59.2925 41.0369 59.1504 40.4148 59.1504 39.7386ZM61.3919 38.8182V39.7386C61.3919 40.1932 61.497 40.608 61.7072 40.983C61.9232 41.3523 62.3038 41.5369 62.8493 41.5369C63.3947 41.5369 63.7697 41.3523 63.9743 40.983C64.1845 40.608 64.2896 40.1932 64.2896 39.7386V38.8182C64.2896 38.3636 64.1902 37.9489 63.9913 37.5739C63.7925 37.1932 63.4118 37.0028 62.8493 37.0028C62.3095 37.0028 61.9317 37.1932 61.7158 37.5739C61.4999 37.9545 61.3919 38.3693 61.3919 38.8182ZM60.122 53L72.122 35.5455H74.2527L62.2527 53H60.122ZM90.5786 53H84.6638V35.5455H90.6979C92.4308 35.5455 93.9195 35.8949 95.1638 36.5938C96.4138 37.2869 97.374 38.2841 98.0445 39.5852C98.7149 40.8864 99.0501 42.4432 99.0501 44.2557C99.0501 46.0739 98.7121 47.6364 98.0359 48.9432C97.3655 50.25 96.3967 51.2528 95.1297 51.9517C93.8683 52.6506 92.3513 53 90.5786 53ZM87.8257 50.2642H90.4251C91.6411 50.2642 92.6553 50.0426 93.4678 49.5994C94.2803 49.1506 94.8911 48.483 95.3001 47.5966C95.7092 46.7045 95.9138 45.5909 95.9138 44.2557C95.9138 42.9205 95.7092 41.8125 95.3001 40.9318C94.8911 40.0455 94.2859 39.3835 93.4848 38.946C92.6893 38.5028 91.7007 38.2812 90.5189 38.2812H87.8257V50.2642ZM101.718 53V39.9091H104.803V53H101.718ZM103.269 38.0511C102.781 38.0511 102.36 37.8892 102.008 37.5653C101.656 37.2358 101.479 36.8409 101.479 36.3807C101.479 35.9148 101.656 35.5199 102.008 35.196C102.36 34.8665 102.781 34.7017 103.269 34.7017C103.763 34.7017 104.184 34.8665 104.531 35.196C104.883 35.5199 105.059 35.9148 105.059 36.3807C105.059 36.8409 104.883 37.2358 104.531 37.5653C104.184 37.8892 103.763 38.0511 103.269 38.0511ZM118.122 43.3693L115.31 43.6761C115.23 43.392 115.091 43.125 114.892 42.875C114.699 42.625 114.438 42.4233 114.108 42.2699C113.779 42.1165 113.375 42.0398 112.898 42.0398C112.256 42.0398 111.716 42.179 111.279 42.4574C110.847 42.7358 110.634 43.0966 110.639 43.5398C110.634 43.9205 110.773 44.2301 111.057 44.4688C111.347 44.7074 111.824 44.9034 112.489 45.0568L114.722 45.5341C115.961 45.8011 116.881 46.2244 117.483 46.804C118.091 47.3835 118.398 48.142 118.404 49.0795C118.398 49.9034 118.157 50.6307 117.679 51.2614C117.208 51.8864 116.551 52.375 115.711 52.7273C114.87 53.0795 113.904 53.2557 112.813 53.2557C111.211 53.2557 109.921 52.9205 108.943 52.25C107.966 51.5739 107.384 50.6335 107.196 49.429L110.205 49.1392C110.341 49.7301 110.631 50.1761 111.074 50.4773C111.517 50.7784 112.094 50.929 112.804 50.929C113.537 50.929 114.125 50.7784 114.568 50.4773C115.017 50.1761 115.242 49.804 115.242 49.3608C115.242 48.9858 115.097 48.6761 114.807 48.4318C114.523 48.1875 114.08 48 113.478 47.8693L111.245 47.4006C109.989 47.1392 109.06 46.6989 108.458 46.0795C107.855 45.4545 107.557 44.6648 107.563 43.7102C107.557 42.9034 107.776 42.2045 108.219 41.6136C108.668 41.017 109.29 40.5568 110.086 40.233C110.887 39.9034 111.81 39.7386 112.855 39.7386C114.389 39.7386 115.597 40.0653 116.478 40.7188C117.364 41.3722 117.912 42.2557 118.122 43.3693ZM126.458 53.2557C125.151 53.2557 124.029 52.9688 123.091 52.3949C122.16 51.821 121.441 51.0284 120.935 50.017C120.435 49 120.185 47.8295 120.185 46.5057C120.185 45.1761 120.441 44.0028 120.952 42.9858C121.464 41.9631 122.185 41.1676 123.117 40.5994C124.055 40.0256 125.162 39.7386 126.441 39.7386C127.503 39.7386 128.444 39.9347 129.262 40.3267C130.086 40.7131 130.742 41.2614 131.231 41.9716C131.719 42.6761 131.998 43.5 132.066 44.4432H129.117C128.998 43.8125 128.714 43.2869 128.265 42.8665C127.822 42.4403 127.228 42.2273 126.484 42.2273C125.853 42.2273 125.299 42.3977 124.822 42.7386C124.344 43.0739 123.972 43.5568 123.705 44.1875C123.444 44.8182 123.313 45.5739 123.313 46.4545C123.313 47.3466 123.444 48.1136 123.705 48.7557C123.966 49.392 124.333 49.8835 124.805 50.2301C125.282 50.571 125.841 50.7415 126.484 50.7415C126.938 50.7415 127.344 50.6562 127.702 50.4858C128.066 50.3097 128.37 50.0568 128.614 49.7273C128.859 49.3977 129.026 48.9972 129.117 48.5256H132.066C131.992 49.4517 131.719 50.2727 131.248 50.9886C130.776 51.6989 130.134 52.2557 129.322 52.6591C128.509 53.0568 127.555 53.2557 126.458 53.2557ZM140.11 53.2557C138.831 53.2557 137.723 52.9744 136.786 52.4119C135.848 51.8494 135.121 51.0625 134.604 50.0511C134.092 49.0398 133.837 47.858 133.837 46.5057C133.837 45.1534 134.092 43.9687 134.604 42.9517C135.121 41.9347 135.848 41.1449 136.786 40.5824C137.723 40.0199 138.831 39.7386 140.11 39.7386C141.388 39.7386 142.496 40.0199 143.433 40.5824C144.371 41.1449 145.095 41.9347 145.607 42.9517C146.124 43.9687 146.382 45.1534 146.382 46.5057C146.382 47.858 146.124 49.0398 145.607 50.0511C145.095 51.0625 144.371 51.8494 143.433 52.4119C142.496 52.9744 141.388 53.2557 140.11 53.2557ZM140.127 50.7841C140.82 50.7841 141.399 50.5937 141.865 50.2131C142.331 49.8267 142.678 49.3097 142.905 48.6619C143.138 48.0142 143.254 47.2926 143.254 46.4972C143.254 45.696 143.138 44.9716 142.905 44.3239C142.678 43.6705 142.331 43.1506 141.865 42.7642C141.399 42.3778 140.82 42.1847 140.127 42.1847C139.416 42.1847 138.825 42.3778 138.354 42.7642C137.888 43.1506 137.538 43.6705 137.306 44.3239C137.078 44.9716 136.965 45.696 136.965 46.4972C136.965 47.2926 137.078 48.0142 137.306 48.6619C137.538 49.3097 137.888 49.8267 138.354 50.2131C138.825 50.5937 139.416 50.7841 140.127 50.7841ZM157.145 47.4943V39.9091H160.23V53H157.238V50.6733H157.102C156.807 51.4062 156.321 52.0057 155.645 52.4716C154.974 52.9375 154.147 53.1705 153.164 53.1705C152.307 53.1705 151.548 52.9801 150.889 52.5994C150.236 52.2131 149.724 51.6534 149.355 50.9205C148.986 50.1818 148.801 49.2898 148.801 48.2443V39.9091H151.886V47.767C151.886 48.5966 152.113 49.2557 152.568 49.7443C153.022 50.233 153.619 50.4773 154.358 50.4773C154.812 50.4773 155.253 50.3665 155.679 50.1449C156.105 49.9233 156.454 49.5938 156.727 49.1562C157.005 48.7131 157.145 48.1591 157.145 47.4943ZM166.288 45.3295V53H163.202V39.9091H166.151V42.1335H166.305C166.606 41.4006 167.086 40.8182 167.745 40.3864C168.41 39.9545 169.231 39.7386 170.208 39.7386C171.112 39.7386 171.898 39.9318 172.569 40.3182C173.245 40.7045 173.768 41.2642 174.137 41.9972C174.512 42.7301 174.697 43.6193 174.691 44.6648V53H171.606V45.142C171.606 44.267 171.379 43.5824 170.924 43.0881C170.475 42.5937 169.853 42.3466 169.058 42.3466C168.518 42.3466 168.038 42.4659 167.617 42.7045C167.202 42.9375 166.876 43.2756 166.637 43.7188C166.404 44.1619 166.288 44.6989 166.288 45.3295ZM184.164 39.9091V42.2955H176.639V39.9091H184.164ZM178.497 36.7727H181.582V49.0625C181.582 49.4773 181.644 49.7955 181.769 50.017C181.9 50.233 182.071 50.3807 182.281 50.4602C182.491 50.5398 182.724 50.5795 182.98 50.5795C183.173 50.5795 183.349 50.5653 183.508 50.5369C183.673 50.5085 183.798 50.483 183.883 50.4602L184.403 52.8722C184.238 52.929 184.002 52.9915 183.696 53.0597C183.394 53.1278 183.025 53.1676 182.588 53.179C181.815 53.2017 181.119 53.0852 180.5 52.8295C179.88 52.5682 179.389 52.1648 179.025 51.6193C178.667 51.0739 178.491 50.392 178.497 49.5739V36.7727ZM198.008 53.2557C196.73 53.2557 195.622 52.9744 194.684 52.4119C193.747 51.8494 193.019 51.0625 192.502 50.0511C191.991 49.0398 191.735 47.858 191.735 46.5057C191.735 45.1534 191.991 43.9687 192.502 42.9517C193.019 41.9347 193.747 41.1449 194.684 40.5824C195.622 40.0199 196.73 39.7386 198.008 39.7386C199.286 39.7386 200.394 40.0199 201.332 40.5824C202.269 41.1449 202.994 41.9347 203.505 42.9517C204.022 43.9687 204.281 45.1534 204.281 46.5057C204.281 47.858 204.022 49.0398 203.505 50.0511C202.994 51.0625 202.269 51.8494 201.332 52.4119C200.394 52.9744 199.286 53.2557 198.008 53.2557ZM198.025 50.7841C198.718 50.7841 199.298 50.5937 199.764 50.2131C200.23 49.8267 200.576 49.3097 200.803 48.6619C201.036 48.0142 201.153 47.2926 201.153 46.4972C201.153 45.696 201.036 44.9716 200.803 44.3239C200.576 43.6705 200.23 43.1506 199.764 42.7642C199.298 42.3778 198.718 42.1847 198.025 42.1847C197.315 42.1847 196.724 42.3778 196.252 42.7642C195.786 43.1506 195.437 43.6705 195.204 44.3239C194.977 44.9716 194.863 45.696 194.863 46.4972C194.863 47.2926 194.977 48.0142 195.204 48.6619C195.437 49.3097 195.786 49.8267 196.252 50.2131C196.724 50.5937 197.315 50.7841 198.025 50.7841ZM209.785 45.3295V53H206.699V39.9091H209.648V42.1335H209.802C210.103 41.4006 210.583 40.8182 211.242 40.3864C211.907 39.9545 212.728 39.7386 213.705 39.7386C214.608 39.7386 215.395 39.9318 216.066 40.3182C216.742 40.7045 217.265 41.2642 217.634 41.9972C218.009 42.7301 218.194 43.6193 218.188 44.6648V53H215.103V45.142C215.103 44.267 214.875 43.5824 214.421 43.0881C213.972 42.5937 213.35 42.3466 212.554 42.3466C212.015 42.3466 211.535 42.4659 211.114 42.7045C210.699 42.9375 210.373 43.2756 210.134 43.7188C209.901 44.1619 209.785 44.6989 209.785 45.3295ZM236.5 40.3438C236.42 39.5994 236.085 39.0199 235.494 38.6051C234.909 38.1903 234.147 37.983 233.21 37.983C232.551 37.983 231.985 38.0824 231.514 38.2812C231.042 38.4801 230.681 38.75 230.431 39.0909C230.181 39.4318 230.054 39.821 230.048 40.2585C230.048 40.6222 230.13 40.9375 230.295 41.2045C230.465 41.4716 230.696 41.6989 230.985 41.8864C231.275 42.0682 231.596 42.2216 231.948 42.3466C232.301 42.4716 232.656 42.5767 233.014 42.6619L234.65 43.071C235.309 43.2244 235.943 43.4318 236.551 43.6932C237.164 43.9545 237.713 44.2841 238.196 44.6818C238.684 45.0795 239.071 45.5597 239.355 46.1222C239.639 46.6847 239.781 47.3437 239.781 48.0994C239.781 49.1222 239.519 50.0227 238.997 50.8011C238.474 51.5739 237.718 52.179 236.73 52.6165C235.747 53.0483 234.556 53.2642 233.159 53.2642C231.801 53.2642 230.622 53.054 229.622 52.6335C228.627 52.2131 227.849 51.5994 227.287 50.7926C226.73 49.9858 226.429 49.0028 226.383 47.8438H229.494C229.539 48.4517 229.727 48.9574 230.056 49.3608C230.386 49.7642 230.815 50.0653 231.343 50.2642C231.877 50.4631 232.474 50.5625 233.133 50.5625C233.821 50.5625 234.423 50.4602 234.94 50.2557C235.463 50.0455 235.872 49.7557 236.167 49.3864C236.463 49.0114 236.613 48.5739 236.619 48.0739C236.613 47.6193 236.48 47.2443 236.218 46.9489C235.957 46.6477 235.59 46.3977 235.119 46.1989C234.653 45.9943 234.108 45.8125 233.483 45.6534L231.497 45.142C230.059 44.7727 228.923 44.2131 228.088 43.4631C227.258 42.7074 226.843 41.7045 226.843 40.4545C226.843 39.4261 227.122 38.5256 227.679 37.7528C228.241 36.9801 229.005 36.3807 229.971 35.9545C230.937 35.5227 232.031 35.3068 233.252 35.3068C234.491 35.3068 235.576 35.5227 236.508 35.9545C237.446 36.3807 238.181 36.9744 238.715 37.7358C239.25 38.4915 239.525 39.3608 239.542 40.3438H236.5ZM248.8 39.9091V42.2955H241.275V39.9091H248.8ZM243.133 36.7727H246.218V49.0625C246.218 49.4773 246.28 49.7955 246.405 50.017C246.536 50.233 246.707 50.3807 246.917 50.4602C247.127 50.5398 247.36 50.5795 247.616 50.5795C247.809 50.5795 247.985 50.5653 248.144 50.5369C248.309 50.5085 248.434 50.483 248.519 50.4602L249.039 52.8722C248.874 52.929 248.638 52.9915 248.332 53.0597C248.03 53.1278 247.661 53.1676 247.224 53.179C246.451 53.2017 245.755 53.0852 245.136 52.8295C244.516 52.5682 244.025 52.1648 243.661 51.6193C243.303 51.0739 243.127 50.392 243.133 49.5739V36.7727ZM256.75 53.2557C255.472 53.2557 254.364 52.9744 253.426 52.4119C252.489 51.8494 251.761 51.0625 251.244 50.0511C250.733 49.0398 250.477 47.858 250.477 46.5057C250.477 45.1534 250.733 43.9687 251.244 42.9517C251.761 41.9347 252.489 41.1449 253.426 40.5824C254.364 40.0199 255.472 39.7386 256.75 39.7386C258.029 39.7386 259.136 40.0199 260.074 40.5824C261.012 41.1449 261.736 41.9347 262.247 42.9517C262.764 43.9687 263.023 45.1534 263.023 46.5057C263.023 47.858 262.764 49.0398 262.247 50.0511C261.736 51.0625 261.012 51.8494 260.074 52.4119C259.136 52.9744 258.029 53.2557 256.75 53.2557ZM256.767 50.7841C257.46 50.7841 258.04 50.5937 258.506 50.2131C258.972 49.8267 259.318 49.3097 259.546 48.6619C259.779 48.0142 259.895 47.2926 259.895 46.4972C259.895 45.696 259.779 44.9716 259.546 44.3239C259.318 43.6705 258.972 43.1506 258.506 42.7642C258.04 42.3778 257.46 42.1847 256.767 42.1847C256.057 42.1847 255.466 42.3778 254.994 42.7642C254.529 43.1506 254.179 43.6705 253.946 44.3239C253.719 44.9716 253.605 45.696 253.605 46.4972C253.605 47.2926 253.719 48.0142 253.946 48.6619C254.179 49.3097 254.529 49.8267 254.994 50.2131C255.466 50.5937 256.057 50.7841 256.767 50.7841ZM265.441 53V39.9091H268.433V42.0909H268.569C268.808 41.3352 269.217 40.7528 269.797 40.3438C270.382 39.929 271.049 39.7216 271.799 39.7216C271.97 39.7216 272.16 39.7301 272.37 39.7472C272.586 39.7585 272.765 39.7784 272.907 39.8068V42.6449C272.777 42.5994 272.569 42.5597 272.285 42.5256C272.007 42.4858 271.737 42.4659 271.476 42.4659C270.913 42.4659 270.407 42.5881 269.959 42.8324C269.515 43.071 269.166 43.4034 268.91 43.8295C268.655 44.2557 268.527 44.7472 268.527 45.304V53H265.441ZM280.013 53.2557C278.701 53.2557 277.567 52.983 276.613 52.4375C275.664 51.8864 274.934 51.108 274.423 50.1023C273.911 49.0909 273.656 47.9006 273.656 46.5312C273.656 45.1847 273.911 44.0028 274.423 42.9858C274.94 41.9631 275.661 41.1676 276.587 40.5994C277.513 40.0256 278.602 39.7386 279.852 39.7386C280.658 39.7386 281.42 39.8693 282.136 40.1307C282.857 40.3864 283.494 40.7841 284.045 41.3239C284.602 41.8636 285.039 42.5511 285.357 43.3864C285.675 44.2159 285.835 45.2045 285.835 46.3523V47.2983H275.104V45.2188H282.877C282.871 44.6278 282.744 44.1023 282.494 43.642C282.244 43.1761 281.894 42.8097 281.445 42.5426C281.002 42.2756 280.485 42.142 279.894 42.142C279.263 42.142 278.71 42.2955 278.232 42.6023C277.755 42.9034 277.383 43.3011 277.116 43.7955C276.854 44.2841 276.721 44.821 276.715 45.4062V47.2216C276.715 47.983 276.854 48.6364 277.133 49.1818C277.411 49.7216 277.8 50.1364 278.3 50.4261C278.8 50.7102 279.386 50.8523 280.056 50.8523C280.505 50.8523 280.911 50.7898 281.275 50.6648C281.638 50.5341 281.954 50.3438 282.221 50.0938C282.488 49.8438 282.69 49.5341 282.826 49.1648L285.707 49.4886C285.525 50.25 285.178 50.9148 284.667 51.483C284.161 52.0455 283.513 52.483 282.724 52.7955C281.934 53.1023 281.031 53.2557 280.013 53.2557ZM305.691 39.9091L301.029 53H297.62L292.958 39.9091H296.248L299.256 49.6335H299.393L302.41 39.9091H305.691ZM312.976 53.2557C311.663 53.2557 310.53 52.983 309.575 52.4375C308.627 51.8864 307.896 51.108 307.385 50.1023C306.874 49.0909 306.618 47.9006 306.618 46.5312C306.618 45.1847 306.874 44.0028 307.385 42.9858C307.902 41.9631 308.624 41.1676 309.55 40.5994C310.476 40.0256 311.564 39.7386 312.814 39.7386C313.621 39.7386 314.382 39.8693 315.098 40.1307C315.82 40.3864 316.456 40.7841 317.007 41.3239C317.564 41.8636 318.002 42.5511 318.32 43.3864C318.638 44.2159 318.797 45.2045 318.797 46.3523V47.2983H308.067V45.2188H315.84C315.834 44.6278 315.706 44.1023 315.456 43.642C315.206 43.1761 314.857 42.8097 314.408 42.5426C313.965 42.2756 313.448 42.142 312.857 42.142C312.226 42.142 311.672 42.2955 311.195 42.6023C310.717 42.9034 310.345 43.3011 310.078 43.7955C309.817 44.2841 309.683 44.821 309.678 45.4062V47.2216C309.678 47.983 309.817 48.6364 310.095 49.1818C310.374 49.7216 310.763 50.1364 311.263 50.4261C311.763 50.7102 312.348 50.8523 313.019 50.8523C313.467 50.8523 313.874 50.7898 314.237 50.6648C314.601 50.5341 314.916 50.3438 315.183 50.0938C315.45 49.8438 315.652 49.5341 315.788 49.1648L318.669 49.4886C318.487 50.25 318.141 50.9148 317.629 51.483C317.124 52.0455 316.476 52.483 315.686 52.7955C314.896 53.1023 313.993 53.2557 312.976 53.2557ZM321.207 53V39.9091H324.199V42.0909H324.335C324.574 41.3352 324.983 40.7528 325.562 40.3438C326.147 39.929 326.815 39.7216 327.565 39.7216C327.736 39.7216 327.926 39.7301 328.136 39.7472C328.352 39.7585 328.531 39.7784 328.673 39.8068V42.6449C328.542 42.5994 328.335 42.5597 328.051 42.5256C327.772 42.4858 327.503 42.4659 327.241 42.4659C326.679 42.4659 326.173 42.5881 325.724 42.8324C325.281 43.071 324.932 43.4034 324.676 43.8295C324.42 44.2557 324.292 44.7472 324.292 45.304V53H321.207ZM330.523 53V39.9091H333.608V53H330.523ZM332.074 38.0511C331.585 38.0511 331.165 37.8892 330.812 37.5653C330.46 37.2358 330.284 36.8409 330.284 36.3807C330.284 35.9148 330.46 35.5199 330.812 35.196C331.165 34.8665 331.585 34.7017 332.074 34.7017C332.568 34.7017 332.989 34.8665 333.335 35.196C333.688 35.5199 333.864 35.9148 333.864 36.3807C333.864 36.8409 333.688 37.2358 333.335 37.5653C332.989 37.8892 332.568 38.0511 332.074 38.0511ZM343.211 39.9091V42.2955H335.473V39.9091H343.211ZM337.407 53V38.6733C337.407 37.7926 337.589 37.0597 337.953 36.4744C338.322 35.8892 338.816 35.4517 339.436 35.1619C340.055 34.8722 340.742 34.7273 341.498 34.7273C342.032 34.7273 342.507 34.7699 342.921 34.8551C343.336 34.9403 343.643 35.017 343.842 35.0852L343.228 37.4716C343.098 37.4318 342.933 37.392 342.734 37.3523C342.535 37.3068 342.313 37.2841 342.069 37.2841C341.495 37.2841 341.089 37.4233 340.85 37.7017C340.617 37.9744 340.501 38.3665 340.501 38.8778V53H337.407ZM345.427 53V39.9091H348.513V53H345.427ZM346.979 38.0511C346.49 38.0511 346.069 37.8892 345.717 37.5653C345.365 37.2358 345.189 36.8409 345.189 36.3807C345.189 35.9148 345.365 35.5199 345.717 35.196C346.069 34.8665 346.49 34.7017 346.979 34.7017C347.473 34.7017 347.893 34.8665 348.24 35.196C348.592 35.5199 348.768 35.9148 348.768 36.3807C348.768 36.8409 348.592 37.2358 348.24 37.5653C347.893 37.8892 347.473 38.0511 346.979 38.0511ZM357.195 53.2557C355.889 53.2557 354.766 52.9688 353.829 52.3949C352.897 51.821 352.178 51.0284 351.673 50.017C351.173 49 350.923 47.8295 350.923 46.5057C350.923 45.1761 351.178 44.0028 351.69 42.9858C352.201 41.9631 352.923 41.1676 353.855 40.5994C354.792 40.0256 355.9 39.7386 357.178 39.7386C358.241 39.7386 359.181 39.9347 359.999 40.3267C360.823 40.7131 361.48 41.2614 361.968 41.9716C362.457 42.6761 362.735 43.5 362.803 44.4432H359.855C359.735 43.8125 359.451 43.2869 359.002 42.8665C358.559 42.4403 357.965 42.2273 357.221 42.2273C356.59 42.2273 356.036 42.3977 355.559 42.7386C355.082 43.0739 354.71 43.5568 354.443 44.1875C354.181 44.8182 354.051 45.5739 354.051 46.4545C354.051 47.3466 354.181 48.1136 354.443 48.7557C354.704 49.392 355.07 49.8835 355.542 50.2301C356.019 50.571 356.579 50.7415 357.221 50.7415C357.676 50.7415 358.082 50.6562 358.44 50.4858C358.803 50.3097 359.107 50.0568 359.352 49.7273C359.596 49.3977 359.764 48.9972 359.855 48.5256H362.803C362.73 49.4517 362.457 50.2727 361.985 50.9886C361.514 51.6989 360.872 52.2557 360.059 52.6591C359.247 53.0568 358.292 53.2557 357.195 53.2557ZM368.904 53.2642C368.074 53.2642 367.327 53.1165 366.662 52.821C366.003 52.5199 365.481 52.0767 365.094 51.4915C364.714 50.9062 364.523 50.1847 364.523 49.3267C364.523 48.5881 364.66 47.9773 364.932 47.4943C365.205 47.0114 365.577 46.625 366.049 46.3352C366.52 46.0455 367.052 45.8267 367.642 45.679C368.239 45.5256 368.856 45.4148 369.492 45.3466C370.259 45.267 370.881 45.196 371.358 45.1335C371.836 45.0653 372.182 44.9631 372.398 44.8267C372.62 44.6847 372.731 44.4659 372.731 44.1705V44.1193C372.731 43.4773 372.54 42.9801 372.16 42.6278C371.779 42.2756 371.231 42.0994 370.515 42.0994C369.759 42.0994 369.16 42.2642 368.716 42.5938C368.279 42.9233 367.983 43.3125 367.83 43.7614L364.949 43.3523C365.177 42.5568 365.552 41.892 366.074 41.358C366.597 40.8182 367.236 40.4148 367.992 40.1477C368.748 39.875 369.583 39.7386 370.498 39.7386C371.128 39.7386 371.756 39.8125 372.381 39.9602C373.006 40.108 373.577 40.3523 374.094 40.6932C374.611 41.0284 375.026 41.4858 375.339 42.0653C375.657 42.6449 375.816 43.3693 375.816 44.2386V53H372.85V51.2017H372.748C372.56 51.5653 372.296 51.9062 371.955 52.2244C371.62 52.5369 371.196 52.7898 370.685 52.983C370.179 53.1705 369.586 53.2642 368.904 53.2642ZM369.705 50.9972C370.324 50.9972 370.861 50.875 371.316 50.6307C371.77 50.3807 372.12 50.0511 372.364 49.642C372.614 49.233 372.739 48.7869 372.739 48.304V46.7614C372.642 46.8409 372.478 46.9148 372.245 46.983C372.017 47.0511 371.762 47.1108 371.478 47.1619C371.194 47.2131 370.912 47.2585 370.634 47.2983C370.356 47.3381 370.114 47.3722 369.91 47.4006C369.449 47.4631 369.037 47.5653 368.674 47.7074C368.31 47.8494 368.023 48.0483 367.813 48.304C367.603 48.554 367.498 48.8778 367.498 49.2756C367.498 49.8438 367.705 50.2727 368.12 50.5625C368.535 50.8523 369.063 50.9972 369.705 50.9972ZM385.255 39.9091V42.2955H377.729V39.9091H385.255ZM379.587 36.7727H382.673V49.0625C382.673 49.4773 382.735 49.7955 382.86 50.017C382.991 50.233 383.161 50.3807 383.371 50.4602C383.582 50.5398 383.815 50.5795 384.07 50.5795C384.263 50.5795 384.44 50.5653 384.599 50.5369C384.763 50.5085 384.888 50.483 384.974 50.4602L385.494 52.8722C385.329 52.929 385.093 52.9915 384.786 53.0597C384.485 53.1278 384.116 53.1676 383.678 53.179C382.906 53.2017 382.21 53.0852 381.59 52.8295C380.971 52.5682 380.479 52.1648 380.116 51.6193C379.758 51.0739 379.582 50.392 379.587 49.5739V36.7727ZM387.635 53V39.9091H390.72V53H387.635ZM389.186 38.0511C388.698 38.0511 388.277 37.8892 387.925 37.5653C387.573 37.2358 387.397 36.8409 387.397 36.3807C387.397 35.9148 387.573 35.5199 387.925 35.196C388.277 34.8665 388.698 34.7017 389.186 34.7017C389.681 34.7017 390.101 34.8665 390.448 35.196C390.8 35.5199 390.976 35.9148 390.976 36.3807C390.976 36.8409 390.8 37.2358 390.448 37.5653C390.101 37.8892 389.681 38.0511 389.186 38.0511ZM399.403 53.2557C398.125 53.2557 397.017 52.9744 396.079 52.4119C395.142 51.8494 394.415 51.0625 393.898 50.0511C393.386 49.0398 393.131 47.858 393.131 46.5057C393.131 45.1534 393.386 43.9687 393.898 42.9517C394.415 41.9347 395.142 41.1449 396.079 40.5824C397.017 40.0199 398.125 39.7386 399.403 39.7386C400.682 39.7386 401.79 40.0199 402.727 40.5824C403.665 41.1449 404.389 41.9347 404.9 42.9517C405.417 43.9687 405.676 45.1534 405.676 46.5057C405.676 47.858 405.417 49.0398 404.9 50.0511C404.389 51.0625 403.665 51.8494 402.727 52.4119C401.79 52.9744 400.682 53.2557 399.403 53.2557ZM399.42 50.7841C400.114 50.7841 400.693 50.5937 401.159 50.2131C401.625 49.8267 401.971 49.3097 402.199 48.6619C402.432 48.0142 402.548 47.2926 402.548 46.4972C402.548 45.696 402.432 44.9716 402.199 44.3239C401.971 43.6705 401.625 43.1506 401.159 42.7642C400.693 42.3778 400.114 42.1847 399.42 42.1847C398.71 42.1847 398.119 42.3778 397.648 42.7642C397.182 43.1506 396.832 43.6705 396.599 44.3239C396.372 44.9716 396.258 45.696 396.258 46.4972C396.258 47.2926 396.372 48.0142 396.599 48.6619C396.832 49.3097 397.182 49.8267 397.648 50.2131C398.119 50.5937 398.71 50.7841 399.42 50.7841ZM411.18 45.3295V53H408.095V39.9091H411.043V42.1335H411.197C411.498 41.4006 411.978 40.8182 412.637 40.3864C413.302 39.9545 414.123 39.7386 415.1 39.7386C416.004 39.7386 416.791 39.9318 417.461 40.3182C418.137 40.7045 418.66 41.2642 419.029 41.9972C419.404 42.7301 419.589 43.6193 419.583 44.6648V53H416.498V45.142C416.498 44.267 416.271 43.5824 415.816 43.0881C415.367 42.5937 414.745 42.3466 413.95 42.3466C413.41 42.3466 412.93 42.4659 412.509 42.7045C412.095 42.9375 411.768 43.2756 411.529 43.7188C411.296 44.1619 411.18 44.6989 411.18 45.3295ZM424.42 53.1875C423.903 53.1875 423.46 53.0057 423.091 52.642C422.721 52.2784 422.54 51.8352 422.545 51.3125C422.54 50.8011 422.721 50.3636 423.091 50C423.46 49.6364 423.903 49.4545 424.42 49.4545C424.92 49.4545 425.355 49.6364 425.724 50C426.099 50.3636 426.29 50.8011 426.295 51.3125C426.29 51.6591 426.199 51.9744 426.022 52.2585C425.852 52.5426 425.625 52.7699 425.341 52.9403C425.062 53.1051 424.755 53.1875 424.42 53.1875ZM446.324 41.1193C446.182 40.6591 445.986 40.2472 445.736 39.8835C445.492 39.5142 445.196 39.1989 444.85 38.9375C444.509 38.6761 444.117 38.4801 443.674 38.3494C443.23 38.2131 442.747 38.1449 442.225 38.1449C441.287 38.1449 440.452 38.3807 439.719 38.8523C438.986 39.3239 438.409 40.017 437.989 40.9318C437.574 41.8409 437.367 42.9489 437.367 44.2557C437.367 45.5739 437.574 46.6903 437.989 47.6051C438.404 48.5199 438.98 49.2159 439.719 49.6932C440.458 50.1648 441.316 50.4006 442.293 50.4006C443.179 50.4006 443.946 50.2301 444.594 49.8892C445.247 49.5483 445.75 49.0653 446.103 48.4403C446.455 47.8097 446.631 47.071 446.631 46.2244L447.347 46.3352H442.608V43.8636H449.691V45.9602C449.691 47.4545 449.372 48.7472 448.736 49.8381C448.1 50.929 447.225 51.7699 446.111 52.3608C444.997 52.946 443.719 53.2386 442.276 53.2386C440.668 53.2386 439.256 52.8778 438.04 52.1562C436.83 51.429 435.884 50.3977 435.202 49.0625C434.526 47.7216 434.188 46.1307 434.188 44.2898C434.188 42.8807 434.387 41.6222 434.784 40.5142C435.188 39.4062 435.75 38.4659 436.472 37.6932C437.193 36.9148 438.04 36.3239 439.012 35.9205C439.983 35.5114 441.04 35.3068 442.182 35.3068C443.148 35.3068 444.049 35.4489 444.884 35.733C445.719 36.0114 446.46 36.4091 447.108 36.9261C447.762 37.4432 448.299 38.0568 448.719 38.767C449.139 39.4773 449.415 40.2614 449.546 41.1193H446.324ZM458.207 53.2557C456.895 53.2557 455.761 52.983 454.807 52.4375C453.858 51.8864 453.128 51.108 452.616 50.1023C452.105 49.0909 451.849 47.9006 451.849 46.5312C451.849 45.1847 452.105 44.0028 452.616 42.9858C453.133 41.9631 453.855 41.1676 454.781 40.5994C455.707 40.0256 456.795 39.7386 458.045 39.7386C458.852 39.7386 459.614 39.8693 460.329 40.1307C461.051 40.3864 461.687 40.7841 462.239 41.3239C462.795 41.8636 463.233 42.5511 463.551 43.3864C463.869 44.2159 464.028 45.2045 464.028 46.3523V47.2983H453.298V45.2188H461.071C461.065 44.6278 460.937 44.1023 460.687 43.642C460.437 43.1761 460.088 42.8097 459.639 42.5426C459.196 42.2756 458.679 42.142 458.088 42.142C457.457 42.142 456.903 42.2955 456.426 42.6023C455.949 42.9034 455.577 43.3011 455.31 43.7955C455.048 44.2841 454.915 44.821 454.909 45.4062V47.2216C454.909 47.983 455.048 48.6364 455.327 49.1818C455.605 49.7216 455.994 50.1364 456.494 50.4261C456.994 50.7102 457.579 50.8523 458.25 50.8523C458.699 50.8523 459.105 50.7898 459.469 50.6648C459.832 50.5341 460.148 50.3438 460.415 50.0938C460.682 49.8438 460.883 49.5341 461.02 49.1648L463.9 49.4886C463.719 50.25 463.372 50.9148 462.861 51.483C462.355 52.0455 461.707 52.483 460.917 52.7955C460.128 53.1023 459.224 53.2557 458.207 53.2557ZM472.975 39.9091V42.2955H465.45V39.9091H472.975ZM467.308 36.7727H470.393V49.0625C470.393 49.4773 470.455 49.7955 470.58 50.017C470.711 50.233 470.882 50.3807 471.092 50.4602C471.302 50.5398 471.535 50.5795 471.791 50.5795C471.984 50.5795 472.16 50.5653 472.319 50.5369C472.484 50.5085 472.609 50.483 472.694 50.4602L473.214 52.8722C473.049 52.929 472.813 52.9915 472.507 53.0597C472.205 53.1278 471.836 53.1676 471.399 53.179C470.626 53.2017 469.93 53.0852 469.311 52.8295C468.691 52.5682 468.2 52.1648 467.836 51.6193C467.478 51.0739 467.302 50.392 467.308 49.5739V36.7727ZM33.5028 89.9091C33.0824 89.9091 32.6932 89.875 32.3352 89.8068C31.983 89.7443 31.7017 89.6705 31.4915 89.5852L32.2074 87.1818C32.6563 87.3125 33.0568 87.375 33.4091 87.3693C33.7614 87.3636 34.071 87.2528 34.3381 87.0369C34.6108 86.8267 34.8409 86.4744 35.0284 85.9801L35.2926 85.2727L30.5455 71.9091H33.8182L36.8352 81.7955H36.9716L39.9972 71.9091H43.2784L38.0369 86.5852C37.7926 87.2784 37.4688 87.8722 37.0653 88.3665C36.6619 88.8665 36.1676 89.2472 35.5824 89.5085C35.0028 89.7756 34.3097 89.9091 33.5028 89.9091ZM50.4783 85.2557C49.1999 85.2557 48.0919 84.9744 47.1544 84.4119C46.2169 83.8494 45.4896 83.0625 44.9726 82.0511C44.4612 81.0398 44.2055 79.858 44.2055 78.5057C44.2055 77.1534 44.4612 75.9687 44.9726 74.9517C45.4896 73.9347 46.2169 73.1449 47.1544 72.5824C48.0919 72.0199 49.1999 71.7386 50.4783 71.7386C51.7567 71.7386 52.8646 72.0199 53.8021 72.5824C54.7396 73.1449 55.4641 73.9347 55.9754 74.9517C56.4925 75.9687 56.751 77.1534 56.751 78.5057C56.751 79.858 56.4925 81.0398 55.9754 82.0511C55.4641 83.0625 54.7396 83.8494 53.8021 84.4119C52.8646 84.9744 51.7567 85.2557 50.4783 85.2557ZM50.4953 82.7841C51.1885 82.7841 51.768 82.5937 52.2339 82.2131C52.6999 81.8267 53.0464 81.3097 53.2737 80.6619C53.5067 80.0142 53.6232 79.2926 53.6232 78.4972C53.6232 77.696 53.5067 76.9716 53.2737 76.3239C53.0464 75.6705 52.6999 75.1506 52.2339 74.7642C51.768 74.3778 51.1885 74.1847 50.4953 74.1847C49.7851 74.1847 49.1942 74.3778 48.7226 74.7642C48.2567 75.1506 47.9072 75.6705 47.6743 76.3239C47.447 76.9716 47.3334 77.696 47.3334 78.4972C47.3334 79.2926 47.447 80.0142 47.6743 80.6619C47.9072 81.3097 48.2567 81.8267 48.7226 82.2131C49.1942 82.5937 49.7851 82.7841 50.4953 82.7841ZM67.5134 79.4943V71.9091H70.5986V85H67.6071V82.6733H67.4707C67.1753 83.4062 66.6895 84.0057 66.0134 84.4716C65.3429 84.9375 64.5162 85.1705 63.5332 85.1705C62.6753 85.1705 61.9168 84.9801 61.2577 84.5994C60.6043 84.2131 60.0929 83.6534 59.7236 82.9205C59.3543 82.1818 59.1696 81.2898 59.1696 80.2443V71.9091H62.2548V79.767C62.2548 80.5966 62.4821 81.2557 62.9366 81.7443C63.3912 82.233 63.9878 82.4773 64.7264 82.4773C65.181 82.4773 65.6213 82.3665 66.0474 82.1449C66.4736 81.9233 66.823 81.5938 67.0957 81.1562C67.3741 80.7131 67.5134 80.1591 67.5134 79.4943ZM73.5712 85V71.9091H76.5626V74.0909H76.699C76.9376 73.3352 77.3467 72.7528 77.9263 72.3438C78.5115 71.929 79.1791 71.7216 79.9291 71.7216C80.0996 71.7216 80.2899 71.7301 80.5001 71.7472C80.7161 71.7585 80.895 71.7784 81.0371 71.8068V74.6449C80.9064 74.5994 80.699 74.5597 80.4149 74.5256C80.1365 74.4858 79.8666 74.4659 79.6053 74.4659C79.0428 74.4659 78.5371 74.5881 78.0882 74.8324C77.645 75.071 77.2956 75.4034 77.0399 75.8295C76.7842 76.2557 76.6564 76.7472 76.6564 77.304V85H73.5712ZM98.9865 75.3693L96.174 75.6761C96.0945 75.392 95.9553 75.125 95.7564 74.875C95.5632 74.625 95.3018 74.4233 94.9723 74.2699C94.6428 74.1165 94.2393 74.0398 93.7621 74.0398C93.12 74.0398 92.5803 74.179 92.1428 74.4574C91.7109 74.7358 91.4979 75.0966 91.5036 75.5398C91.4979 75.9205 91.6371 76.2301 91.9212 76.4688C92.2109 76.7074 92.6882 76.9034 93.353 77.0568L95.5859 77.5341C96.8246 77.8011 97.745 78.2244 98.3473 78.804C98.9553 79.3835 99.2621 80.142 99.2678 81.0795C99.2621 81.9034 99.0206 82.6307 98.5433 83.2614C98.0717 83.8864 97.4155 84.375 96.5746 84.7273C95.7337 85.0795 94.7678 85.2557 93.6768 85.2557C92.0746 85.2557 90.7848 84.9205 89.8075 84.25C88.8303 83.5739 88.2479 82.6335 88.0604 81.429L91.0689 81.1392C91.2053 81.7301 91.495 82.1761 91.9382 82.4773C92.3814 82.7784 92.9581 82.929 93.6683 82.929C94.4013 82.929 94.9893 82.7784 95.4325 82.4773C95.8814 82.1761 96.1058 81.804 96.1058 81.3608C96.1058 80.9858 95.9609 80.6761 95.6712 80.4318C95.3871 80.1875 94.9439 80 94.3416 79.8693L92.1087 79.4006C90.853 79.1392 89.924 78.6989 89.3217 78.0795C88.7195 77.4545 88.4212 76.6648 88.4268 75.7102C88.4212 74.9034 88.6399 74.2045 89.0831 73.6136C89.532 73.017 90.1541 72.5568 90.9496 72.233C91.7507 71.9034 92.674 71.7386 93.7195 71.7386C95.2536 71.7386 96.4609 72.0653 97.3416 72.7188C98.228 73.3722 98.7763 74.2557 98.9865 75.3693ZM108.149 71.9091V74.2955H100.623V71.9091H108.149ZM102.481 68.7727H105.566V81.0625C105.566 81.4773 105.629 81.7955 105.754 82.017C105.885 82.233 106.055 82.3807 106.265 82.4602C106.475 82.5398 106.708 82.5795 106.964 82.5795C107.157 82.5795 107.333 82.5653 107.492 82.5369C107.657 82.5085 107.782 82.483 107.867 82.4602L108.387 84.8722C108.223 84.929 107.987 84.9915 107.68 85.0597C107.379 85.1278 107.01 85.1676 106.572 85.179C105.799 85.2017 105.103 85.0852 104.484 84.8295C103.865 84.5682 103.373 84.1648 103.01 83.6193C102.652 83.0739 102.475 82.392 102.481 81.5739V68.7727ZM110.529 85V71.9091H113.52V74.0909H113.657C113.895 73.3352 114.305 72.7528 114.884 72.3438C115.469 71.929 116.137 71.7216 116.887 71.7216C117.057 71.7216 117.248 71.7301 117.458 71.7472C117.674 71.7585 117.853 71.7784 117.995 71.8068V74.6449C117.864 74.5994 117.657 74.5597 117.373 74.5256C117.094 74.4858 116.824 74.4659 116.563 74.4659C116.001 74.4659 115.495 74.5881 115.046 74.8324C114.603 75.071 114.253 75.4034 113.998 75.8295C113.742 76.2557 113.614 76.7472 113.614 77.304V85H110.529ZM125.016 85.2557C123.737 85.2557 122.629 84.9744 121.692 84.4119C120.754 83.8494 120.027 83.0625 119.51 82.0511C118.999 81.0398 118.743 79.858 118.743 78.5057C118.743 77.1534 118.999 75.9687 119.51 74.9517C120.027 73.9347 120.754 73.1449 121.692 72.5824C122.629 72.0199 123.737 71.7386 125.016 71.7386C126.294 71.7386 127.402 72.0199 128.34 72.5824C129.277 73.1449 130.002 73.9347 130.513 74.9517C131.03 75.9687 131.288 77.1534 131.288 78.5057C131.288 79.858 131.03 81.0398 130.513 82.0511C130.002 83.0625 129.277 83.8494 128.34 84.4119C127.402 84.9744 126.294 85.2557 125.016 85.2557ZM125.033 82.7841C125.726 82.7841 126.306 82.5937 126.771 82.2131C127.237 81.8267 127.584 81.3097 127.811 80.6619C128.044 80.0142 128.161 79.2926 128.161 78.4972C128.161 77.696 128.044 76.9716 127.811 76.3239C127.584 75.6705 127.237 75.1506 126.771 74.7642C126.306 74.3778 125.726 74.1847 125.033 74.1847C124.323 74.1847 123.732 74.3778 123.26 74.7642C122.794 75.1506 122.445 75.6705 122.212 76.3239C121.985 76.9716 121.871 77.696 121.871 78.4972C121.871 79.2926 121.985 80.0142 122.212 80.6619C122.445 81.3097 122.794 81.8267 123.26 82.2131C123.732 82.5937 124.323 82.7841 125.033 82.7841ZM133.707 85V71.9091H136.699V74.0909H136.835C137.074 73.3352 137.483 72.7528 138.062 72.3438C138.647 71.929 139.315 71.7216 140.065 71.7216C140.236 71.7216 140.426 71.7301 140.636 71.7472C140.852 71.7585 141.031 71.7784 141.173 71.8068V74.6449C141.042 74.5994 140.835 74.5597 140.551 74.5256C140.272 74.4858 140.003 74.4659 139.741 74.4659C139.179 74.4659 138.673 74.5881 138.224 74.8324C137.781 75.071 137.432 75.4034 137.176 75.8295C136.92 76.2557 136.792 76.7472 136.792 77.304V85H133.707ZM148.279 85.2557C146.967 85.2557 145.833 84.983 144.879 84.4375C143.93 83.8864 143.2 83.108 142.688 82.1023C142.177 81.0909 141.921 79.9006 141.921 78.5312C141.921 77.1847 142.177 76.0028 142.688 74.9858C143.205 73.9631 143.927 73.1676 144.853 72.5994C145.779 72.0256 146.867 71.7386 148.117 71.7386C148.924 71.7386 149.685 71.8693 150.401 72.1307C151.123 72.3864 151.759 72.7841 152.31 73.3239C152.867 73.8636 153.305 74.5511 153.623 75.3864C153.941 76.2159 154.1 77.2045 154.1 78.3523V79.2983H143.37V77.2188H151.143C151.137 76.6278 151.009 76.1023 150.759 75.642C150.509 75.1761 150.16 74.8097 149.711 74.5426C149.268 74.2756 148.751 74.142 148.16 74.142C147.529 74.142 146.975 74.2955 146.498 74.6023C146.021 74.9034 145.648 75.3011 145.381 75.7955C145.12 76.2841 144.987 76.821 144.981 77.4062V79.2216C144.981 79.983 145.12 80.6364 145.398 81.1818C145.677 81.7216 146.066 82.1364 146.566 82.4261C147.066 82.7102 147.651 82.8523 148.322 82.8523C148.771 82.8523 149.177 82.7898 149.54 82.6648C149.904 82.5341 150.219 82.3438 150.487 82.0938C150.754 81.8438 150.955 81.5341 151.092 81.1648L153.972 81.4886C153.79 82.25 153.444 82.9148 152.933 83.483C152.427 84.0455 151.779 84.483 150.989 84.7955C150.2 85.1023 149.296 85.2557 148.279 85.2557ZM173.957 71.9091L169.295 85H165.886L161.224 71.9091H164.513L167.522 81.6335H167.658L170.675 71.9091H173.957ZM181.242 85.2557C179.929 85.2557 178.796 84.983 177.841 84.4375C176.892 83.8864 176.162 83.108 175.651 82.1023C175.139 81.0909 174.884 79.9006 174.884 78.5312C174.884 77.1847 175.139 76.0028 175.651 74.9858C176.168 73.9631 176.889 73.1676 177.815 72.5994C178.742 72.0256 179.83 71.7386 181.08 71.7386C181.886 71.7386 182.648 71.8693 183.364 72.1307C184.085 72.3864 184.722 72.7841 185.273 73.3239C185.83 73.8636 186.267 74.5511 186.585 75.3864C186.904 76.2159 187.063 77.2045 187.063 78.3523V79.2983H176.333V77.2188H184.105C184.1 76.6278 183.972 76.1023 183.722 75.642C183.472 75.1761 183.122 74.8097 182.673 74.5426C182.23 74.2756 181.713 74.142 181.122 74.142C180.492 74.142 179.938 74.2955 179.46 74.6023C178.983 74.9034 178.611 75.3011 178.344 75.7955C178.083 76.2841 177.949 76.821 177.943 77.4062V79.2216C177.943 79.983 178.083 80.6364 178.361 81.1818C178.639 81.7216 179.029 82.1364 179.529 82.4261C180.029 82.7102 180.614 82.8523 181.284 82.8523C181.733 82.8523 182.139 82.7898 182.503 82.6648C182.867 82.5341 183.182 82.3438 183.449 82.0938C183.716 81.8438 183.918 81.5341 184.054 81.1648L186.935 81.4886C186.753 82.25 186.406 82.9148 185.895 83.483C185.389 84.0455 184.742 84.483 183.952 84.7955C183.162 85.1023 182.259 85.2557 181.242 85.2557ZM189.473 85V71.9091H192.464V74.0909H192.601C192.839 73.3352 193.248 72.7528 193.828 72.3438C194.413 71.929 195.081 71.7216 195.831 71.7216C196.001 71.7216 196.191 71.7301 196.402 71.7472C196.618 71.7585 196.797 71.7784 196.939 71.8068V74.6449C196.808 74.5994 196.601 74.5597 196.316 74.5256C196.038 74.4858 195.768 74.4659 195.507 74.4659C194.944 74.4659 194.439 74.5881 193.99 74.8324C193.547 75.071 193.197 75.4034 192.941 75.8295C192.686 76.2557 192.558 76.7472 192.558 77.304V85H189.473ZM198.788 85V71.9091H201.874V85H198.788ZM200.339 70.0511C199.851 70.0511 199.43 69.8892 199.078 69.5653C198.726 69.2358 198.55 68.8409 198.55 68.3807C198.55 67.9148 198.726 67.5199 199.078 67.196C199.43 66.8665 199.851 66.7017 200.339 66.7017C200.834 66.7017 201.254 66.8665 201.601 67.196C201.953 67.5199 202.129 67.9148 202.129 68.3807C202.129 68.8409 201.953 69.2358 201.601 69.5653C201.254 69.8892 200.834 70.0511 200.339 70.0511ZM211.477 71.9091V74.2955H203.738V71.9091H211.477ZM205.673 85V70.6733C205.673 69.7926 205.855 69.0597 206.218 68.4744C206.588 67.8892 207.082 67.4517 207.701 67.1619C208.321 66.8722 209.008 66.7273 209.764 66.7273C210.298 66.7273 210.772 66.7699 211.187 66.8551C211.602 66.9403 211.909 67.017 212.108 67.0852L211.494 69.4716C211.363 69.4318 211.198 69.392 211 69.3523C210.801 69.3068 210.579 69.2841 210.335 69.2841C209.761 69.2841 209.355 69.4233 209.116 69.7017C208.883 69.9744 208.767 70.3665 208.767 70.8778V85H205.673ZM213.693 85V71.9091H216.778V85H213.693ZM215.244 70.0511C214.756 70.0511 214.335 69.8892 213.983 69.5653C213.631 69.2358 213.454 68.8409 213.454 68.3807C213.454 67.9148 213.631 67.5199 213.983 67.196C214.335 66.8665 214.756 66.7017 215.244 66.7017C215.739 66.7017 216.159 66.8665 216.506 67.196C216.858 67.5199 217.034 67.9148 217.034 68.3807C217.034 68.8409 216.858 69.2358 216.506 69.5653C216.159 69.8892 215.739 70.0511 215.244 70.0511ZM225.546 85.2557C224.234 85.2557 223.1 84.983 222.146 84.4375C221.197 83.8864 220.467 83.108 219.955 82.1023C219.444 81.0909 219.188 79.9006 219.188 78.5312C219.188 77.1847 219.444 76.0028 219.955 74.9858C220.472 73.9631 221.194 73.1676 222.12 72.5994C223.046 72.0256 224.134 71.7386 225.384 71.7386C226.191 71.7386 226.953 71.8693 227.668 72.1307C228.39 72.3864 229.026 72.7841 229.578 73.3239C230.134 73.8636 230.572 74.5511 230.89 75.3864C231.208 76.2159 231.367 77.2045 231.367 78.3523V79.2983H220.637V77.2188H228.41C228.404 76.6278 228.276 76.1023 228.026 75.642C227.776 75.1761 227.427 74.8097 226.978 74.5426C226.535 74.2756 226.018 74.142 225.427 74.142C224.796 74.142 224.242 74.2955 223.765 74.6023C223.288 74.9034 222.916 75.3011 222.649 75.7955C222.387 76.2841 222.254 76.821 222.248 77.4062V79.2216C222.248 79.983 222.387 80.6364 222.666 81.1818C222.944 81.7216 223.333 82.1364 223.833 82.4261C224.333 82.7102 224.918 82.8523 225.589 82.8523C226.038 82.8523 226.444 82.7898 226.808 82.6648C227.171 82.5341 227.487 82.3438 227.754 82.0938C228.021 81.8438 228.222 81.5341 228.359 81.1648L231.239 81.4886C231.058 82.25 230.711 82.9148 230.2 83.483C229.694 84.0455 229.046 84.483 228.257 84.7955C227.467 85.1023 226.563 85.2557 225.546 85.2557ZM238.635 85.2301C237.607 85.2301 236.687 84.9659 235.874 84.4375C235.062 83.9091 234.419 83.142 233.948 82.1364C233.476 81.1307 233.24 79.9091 233.24 78.4716C233.24 77.017 233.479 75.7898 233.956 74.7898C234.439 73.7841 235.09 73.0256 235.908 72.5142C236.726 71.9972 237.638 71.7386 238.644 71.7386C239.411 71.7386 240.042 71.8693 240.536 72.1307C241.03 72.3864 241.422 72.696 241.712 73.0597C242.002 73.4176 242.226 73.7557 242.385 74.0739H242.513V67.5455H245.607V85H242.573V82.9375H242.385C242.226 83.2557 241.996 83.5937 241.695 83.9517C241.394 84.304 240.996 84.6051 240.502 84.8551C240.008 85.1051 239.385 85.2301 238.635 85.2301ZM239.496 82.6989C240.15 82.6989 240.706 82.5227 241.167 82.1705C241.627 81.8125 241.976 81.3153 242.215 80.679C242.454 80.0426 242.573 79.3011 242.573 78.4545C242.573 77.608 242.454 76.8722 242.215 76.2472C241.982 75.6222 241.635 75.1364 241.175 74.7898C240.721 74.4432 240.161 74.2699 239.496 74.2699C238.809 74.2699 238.235 74.4489 237.775 74.8068C237.314 75.1648 236.968 75.6591 236.735 76.2898C236.502 76.9205 236.385 77.642 236.385 78.4545C236.385 79.2727 236.502 80.0028 236.735 80.6449C236.973 81.2812 237.323 81.7841 237.783 82.1534C238.249 82.517 238.82 82.6989 239.496 82.6989ZM250.595 85.1875C250.078 85.1875 249.635 85.0057 249.266 84.642C248.896 84.2784 248.714 83.8352 248.72 83.3125C248.714 82.8011 248.896 82.3636 249.266 82C249.635 81.6364 250.078 81.4545 250.595 81.4545C251.095 81.4545 251.53 81.6364 251.899 82C252.274 82.3636 252.464 82.8011 252.47 83.3125C252.464 83.6591 252.374 83.9744 252.197 84.2585C252.027 84.5426 251.8 84.7699 251.516 84.9403C251.237 85.1051 250.93 85.1875 250.595 85.1875Z" fill="white"/>
</svg>
