<svg width="20" height="20" viewBox="0 0 20 20" fill="none" xmlns="http://www.w3.org/2000/svg">
<path fill-rule="evenodd" clip-rule="evenodd" d="M1.80715 1.28861C2.15001 0.534329 2.90287 -0.00566935 3.74572 4.49242e-05H16.2543H16.2514L16.2571 0.714329V4.49242e-05H16.2543C17.0971 -0.00566935 17.85 0.534329 18.1929 1.28861L18.1943 1.29147L19.49 4.17004H0.510011L1.80572 1.29147V1.28861H1.80715ZM1.1086e-05 5.95575H20V7.90574C20 8.28288 19.8657 8.65717 19.6071 8.94288C19.4769 9.08902 19.3174 9.20613 19.139 9.28661C18.9605 9.36709 18.7672 9.40914 18.5714 9.41002H1.42858C1.23284 9.40914 1.03947 9.36709 0.861039 9.28661C0.682605 9.20613 0.523095 9.08902 0.392868 8.94288C0.138482 8.65745 -0.00143419 8.28808 1.1086e-05 7.90574V5.95575ZM1.42858 11.9229C1.42858 11.7334 1.50384 11.5518 1.63779 11.4178C1.77175 11.2838 1.95343 11.2086 2.14287 11.2086H17.8571C18.0466 11.2086 18.2283 11.2838 18.3622 11.4178C18.4962 11.5518 18.5714 11.7334 18.5714 11.9229V18.5714C18.5714 18.9503 18.4209 19.3137 18.153 19.5816C17.8851 19.8495 17.5217 20 17.1429 20H15.35V14.5857C15.3497 14.5439 15.3406 14.5026 15.3234 14.4644C15.3062 14.4263 15.2812 14.3922 15.25 14.3643C15.1834 14.3044 15.0967 14.2718 15.0071 14.2729H12.1614C12.0719 14.272 11.9853 14.3046 11.9186 14.3643C11.8874 14.3922 11.8624 14.4263 11.8452 14.4644C11.8279 14.5026 11.8189 14.5439 11.8186 14.5857V20H2.85715C2.47827 20 2.11491 19.8495 1.847 19.5816C1.57909 19.3137 1.42858 18.9503 1.42858 18.5714V11.9229ZM3.5743 14.2857V16.0857C3.5743 16.1795 3.59277 16.2724 3.62867 16.3591C3.66456 16.4457 3.71718 16.5245 3.7835 16.5908C3.84983 16.6571 3.92857 16.7097 4.01523 16.7456C4.1019 16.7815 4.19478 16.8 4.28858 16.8H8.59429C8.68809 16.8 8.78098 16.7815 8.86764 16.7456C8.9543 16.7097 9.03304 16.6571 9.09937 16.5908C9.1657 16.5245 9.21831 16.4457 9.25421 16.3591C9.2901 16.2724 9.30858 16.1795 9.30858 16.0857V14.2857C9.30858 14.1919 9.2901 14.099 9.25421 14.0124C9.21831 13.9257 9.1657 13.847 9.09937 13.7807C9.03304 13.7143 8.9543 13.6617 8.86764 13.6258C8.78098 13.5899 8.68809 13.5714 8.59429 13.5714H4.28858C4.09914 13.5714 3.91746 13.6467 3.7835 13.7807C3.64955 13.9146 3.5743 14.0963 3.5743 14.2857Z" fill="#8B96A5"/>
</svg>
