<svg width="40" height="32" viewBox="0 0 40 32" fill="none" xmlns="http://www.w3.org/2000/svg">
<path fill-rule="evenodd" clip-rule="evenodd" d="M27.3482 12.9409C27.3552 13.0731 27.3598 13.2053 27.3598 13.3394C27.3598 17.4053 23.5197 22.0947 16.4976 22.0947C14.3415 22.0947 12.3353 21.5856 10.6455 20.7128C10.9444 20.7409 11.248 20.755 11.5561 20.755C13.3448 20.755 14.9904 20.2638 16.2976 19.4378C14.6264 19.4134 13.2169 18.5238 12.7307 17.3013C12.9645 17.3369 13.2029 17.3556 13.4495 17.3556C13.7972 17.3556 14.1345 17.3181 14.4554 17.2478C12.7087 16.9656 11.3933 15.7216 11.3933 14.2309C11.3933 14.2178 11.3933 14.2047 11.3933 14.1916C11.9074 14.4222 12.497 14.5609 13.1227 14.5769C12.0981 14.0247 11.4236 13.0825 11.4236 12.0156C11.4236 11.4513 11.612 10.9225 11.9411 10.4678C13.8239 12.3297 16.6372 13.555 19.8098 13.6834C19.7446 13.4584 19.7109 13.2231 19.7109 12.9822C19.7109 11.2825 21.4205 9.90438 23.5278 9.90438C24.6268 9.90438 25.6188 10.2784 26.3143 10.8766C27.1842 10.7388 28.0018 10.4828 28.7391 10.1303C28.4542 10.8484 27.8483 11.4513 27.0609 11.8328C27.8331 11.7578 28.5681 11.5928 29.2531 11.3481C28.7414 11.965 28.0936 12.5069 27.3482 12.9409ZM19.9493 1C9.67212 1 1.34174 7.71531 1.34174 16C1.34174 24.2837 9.67212 31 19.9493 31C30.2265 31 38.5569 24.2837 38.5569 16C38.5569 7.71531 30.2265 1 19.9493 1Z" fill="#BDC4CD"/>
</svg>
