<svg width="21" height="21" viewBox="0 0 21 21" fill="none" xmlns="http://www.w3.org/2000/svg">
<path fill-rule="evenodd" clip-rule="evenodd" d="M10.6432 0.651432C16.0983 0.646902 20.6462 5.2052 20.6462 10.6513C20.6462 16.1019 16.0983 20.6466 10.6432 20.6436C9.20966 20.6444 7.79263 20.3375 6.48776 19.7437L1.53684 20.6391C1.40542 20.6632 1.26997 20.6519 1.14432 20.6065C1.01867 20.561 0.907329 20.483 0.821675 20.3805C0.736021 20.2779 0.679123 20.1544 0.656794 20.0227C0.634465 19.8909 0.647505 19.7556 0.694583 19.6305L2.11344 15.8588C1.15754 14.2894 0.651064 12.4875 0.6493 10.6498C0.650809 5.20369 5.19418 0.654451 10.6432 0.651432ZM15.6621 14.8986C14.5496 15.7984 12.8274 16.7074 11.1806 15.6505C9.02209 14.2629 7.11115 12.4405 5.7255 10.2799C4.91192 9.0146 5.6772 6.98835 6.82134 5.75328C7.27719 5.25955 8.02889 5.33806 8.52549 5.79103L9.57001 6.74526C9.88699 7.03516 9.89906 7.53945 9.70133 7.92296C9.38888 8.52389 9.20473 9.33167 9.59114 9.93411C10.0772 10.689 10.6749 11.4334 12.1028 11.8667C12.5345 11.9996 13.0885 11.9422 13.5594 11.752C13.9534 11.5919 14.453 11.5935 14.7443 11.9045L15.7164 12.9387C16.2522 13.5095 16.2704 14.4063 15.6621 14.8986Z" fill="#00B517"/>
</svg>
